<?xml version="1.0" standalone="no"?>
<!DOCTYPE svg PUBLIC "-//W3C//DTD SVG 20010904//EN"
 "http://www.w3.org/TR/2001/REC-SVG-20010904/DTD/svg10.dtd">
<svg version="1.0" xmlns="http://www.w3.org/2000/svg"
 width="256.000000pt" height="256.000000pt" viewBox="0 0 256.000000 256.000000"
 preserveAspectRatio="xMidYMid meet">
<metadata>
Created by potrace 1.11, written by Peter Selinger 2001-2013
</metadata>
<g transform="translate(0.000000,256.000000) scale(0.100000,-0.100000)"
fill="#000000" stroke="none">
<path d="M1558 2072 c-32 -8 -58 -18 -58 -23 0 -5 -6 -9 -13 -9 -18 0 -104
-85 -124 -123 -76 -147 -36 -373 93 -533 l34 -42 -33 -6 c-112 -20 -123 -19
-168 13 -97 71 -202 69 -310 -5 -42 -30 -56 -34 -68 -25 -33 24 -103 50 -148
57 -54 7 -323 11 -366 5 -44 -6 -54 -39 -27 -91 22 -43 17 -59 -18 -60 -7 0
-20 -4 -30 -9 -9 -5 -55 -23 -102 -41 -109 -42 -150 -67 -150 -90 0 -21 14
-36 106 -118 85 -76 85 -76 127 -107 21 -16 52 -49 70 -74 17 -25 34 -48 39
-51 6 -5 -9 -29 -80 -129 -30 -41 -44 -52 -61 -47 -9 3 -33 7 -53 10 -30 4
-41 0 -52 -16 -27 -39 1 -64 81 -74 20 -3 40 -7 44 -10 21 -13 52 13 110 91
l63 85 23 -22 c13 -12 23 -26 23 -31 0 -5 -26 -45 -57 -89 l-58 -79 -62 6
c-60 6 -63 6 -75 -20 -15 -33 5 -56 53 -61 18 -2 47 -8 64 -13 50 -13 44 -18
201 194 12 16 24 20 55 17 68 -7 103 6 205 78 54 38 107 75 117 82 10 7 40 29
67 48 26 19 96 69 155 110 59 41 120 87 134 101 14 14 84 85 156 158 99 101
132 129 140 119 5 -7 35 -33 65 -58 30 -25 66 -55 80 -66 142 -122 160 -133
183 -110 6 6 93 79 192 161 199 166 197 164 242 221 124 157 158 385 79 524
-33 59 -86 107 -147 134 -124 56 -252 28 -350 -75 l-47 -49 -17 27 c-65 98
-200 146 -327 115z"/>
</g>
</svg>
